<?xml version="1.0" encoding="UTF-8"?>
<svg width="364px" height="146px" viewBox="0 0 364 146" version="1.1" xmlns="http://www.w3.org/2000/svg" xmlns:xlink="http://www.w3.org/1999/xlink">
    <!-- Generator: Sketch 57.1 (83088) - https://sketch.com -->
    <title>Group</title>
    <desc>Created with Sketch.</desc>
    <g id="Page-1" stroke="none" stroke-width="1" fill="none" fill-rule="evenodd">
        <g id="Group">
            <rect id="Rectangle" stroke="#FF52E4" stroke-width="8" fill="#24283d" x="4" y="4" width="356" height="138" rx="6"></rect>
            <path d="M47.8925781,54.8925781 C51.7500193,54.8925781 54.6918844,56.4184418 56.7182617,59.4702148 C58.744639,62.5219879 59.7578125,66.9612339 59.7578125,72.7880859 C59.7578125,78.5823857 58.748708,83.0094248 56.7304688,86.0693359 C54.7122295,89.1292471 51.7662954,90.6591797 47.8925781,90.6591797 C44.0514131,90.6591797 41.1176859,89.133316 39.0913086,86.081543 C37.0649313,83.0297699 36.0517578,78.5986619 36.0517578,72.7880859 C36.0517578,66.97751 37.0608623,62.542333 39.0791016,59.4824219 C41.0973408,56.4225107 44.035137,54.8925781 47.8925781,54.8925781 Z M47.8925781,87.1435547 C52.9707285,87.1435547 55.5097656,82.3584463 55.5097656,72.7880859 C55.5097656,63.2014495 52.9707285,58.4082031 47.8925781,58.4082031 C45.4186074,58.4082031 43.5346744,59.6492389 42.2407227,62.1313477 C40.9467709,64.6134564 40.2998047,68.165667 40.2998047,72.7880859 C40.2998047,77.4593333 40.9427019,81.0196818 42.2285156,83.4692383 C43.5143293,85.9187948 45.4023313,87.1435547 47.8925781,87.1435547 Z M91.5449219,55.5517578 L80.3144531,90 L75.5048828,90 L64.25,55.5517578 L68.4492188,55.5517578 L77.8974609,85.3613281 L87.3945312,55.5517578 L91.5449219,55.5517578 Z M121.549805,55.5517578 L110.319336,90 L105.509766,90 L94.2548828,55.5517578 L98.4541016,55.5517578 L107.902344,85.3613281 L117.399414,55.5517578 L121.549805,55.5517578 Z M147.208984,90 L129.21582,90 L129.21582,55.5517578 L147.0625,55.5517578 L147.0625,59.0429688 L133.219727,59.0429688 L133.219727,69.7119141 L146.525391,69.7119141 L146.525391,73.203125 L133.219727,73.203125 L133.219727,86.5087891 L147.208984,86.5087891 L147.208984,90 Z M179.069336,90 L175.211914,90 L175.211914,60.4589844 L170.011719,74.5947266 L166.227539,74.5947266 L161.027344,60.4589844 L161.027344,90 L157.169922,90 L157.169922,55.5517578 L162.370117,55.5517578 L168.131836,71.25 L173.869141,55.5517578 L179.069336,55.5517578 L179.069336,90 Z M211.686523,90 L207.487305,90 L203.678711,77.9394531 L192.375,77.9394531 L188.517578,90 L184.367188,90 L195.62207,55.5517578 L200.431641,55.5517578 L211.686523,90 Z M202.53125,74.4482422 L198.014648,60.1904297 L193.522461,74.4482422 L202.53125,74.4482422 Z M202.824219,47.0556641 C203.556644,47.0556641 204.16699,47.3079402 204.655273,47.8125 C205.143557,48.3170598 205.387695,48.9518191 205.387695,49.7167969 C205.387695,50.4166702 205.135419,51.0310846 204.630859,51.5600586 C204.1263,52.0890326 203.524092,52.3535156 202.824219,52.3535156 C202.091793,52.3535156 201.469241,52.0890326 200.956543,51.5600586 C200.443845,51.0310846 200.1875,50.4166702 200.1875,49.7167969 C200.1875,48.9518191 200.439776,48.3170598 200.944336,47.8125 C201.448896,47.3079402 202.075517,47.0556641 202.824219,47.0556641 Z M193.180664,47.0556641 C193.929366,47.0556641 194.547849,47.3038712 195.036133,47.800293 C195.524417,48.2967147 195.768555,48.935543 195.768555,49.7167969 C195.768555,50.4329463 195.516279,51.0514297 195.011719,51.5722656 C194.507159,52.0931016 193.896813,52.3535156 193.180664,52.3535156 C192.464515,52.3535156 191.841962,52.0890326 191.312988,51.5600586 C190.784014,51.0310846 190.519531,50.4166702 190.519531,49.7167969 C190.519531,48.9518191 190.779945,48.3170598 191.300781,47.8125 C191.821617,47.3079402 192.448239,47.0556641 193.180664,47.0556641 Z M241.642578,90 L236.637695,90 L226.530273,74.3505859 L222.086914,74.3505859 L222.086914,90 L218.083008,90 L218.083008,55.5517578 L227.824219,55.5517578 C231.095719,55.5517578 233.679515,56.3452069 235.575684,57.9321289 C237.471852,59.5190509 238.419922,61.7285015 238.419922,64.5605469 C238.419922,66.6601667 237.728197,68.5278239 236.344727,70.1635742 C234.961256,71.7993246 233.056978,72.9101533 230.631836,73.4960938 L241.642578,90 Z M222.086914,70.859375 L227.140625,70.859375 C229.256521,70.859375 230.973626,70.2856503 232.291992,69.1381836 C233.610358,67.9907169 234.269531,66.5462327 234.269531,64.8046875 C234.269531,60.9635225 231.925805,59.0429688 227.238281,59.0429688 L222.086914,59.0429688 L222.086914,70.859375 Z M272.428711,90 L267.375,90 L255.729492,73.1054688 L252.091797,77.0605469 L252.091797,90 L248.087891,90 L248.087891,55.5517578 L252.091797,55.5517578 L252.091797,72.0556641 L267.375,55.5517578 L271.989258,55.5517578 L258.537109,70.1025391 L272.428711,90 Z M297.233398,90 L279.240234,90 L279.240234,55.5517578 L297.086914,55.5517578 L297.086914,59.0429688 L283.244141,59.0429688 L283.244141,69.7119141 L296.549805,69.7119141 L296.549805,73.203125 L283.244141,73.203125 L283.244141,86.5087891 L297.233398,86.5087891 L297.233398,90 Z M328.385742,90 L323.942383,90 L311.588867,62.8027344 L311.588867,90 L307.584961,90 L307.584961,55.5517578 L312.052734,55.5517578 L324.455078,82.5048828 L324.455078,55.5517578 L328.385742,55.5517578 L328.385742,90 Z" id="OVVEMÄRKEN" fill="#FF52E4" fill-rule="nonzero"></path>
        </g>
    </g>
</svg>